<svg width="135" height="40" viewBox="0 0 135 40" fill="none" xmlns="http://www.w3.org/2000/svg">
  <rect width="135" height="40" rx="8" fill="#000"/>
  <path d="M30 13.5C29.5 14.7 28.8 15.8 27.9 16.7C27 17.6 25.9 18.3 24.7 18.8C23.5 19.3 22.2 19.5 20.9 19.5H20.8V13.5H20.9C22.2 13.5 23.5 13.7 24.7 14.2C25.9 14.7 27 15.4 27.9 16.3C28.8 15.4 29.5 14.4 30 13.5ZM33.5 15.8C32.7 14.4 31.6 13.2 30.3 12.3C29 11.4 27.5 11 25.9 11H15V29H20.8V21.2H25.9C27.5 21.2 29 20.8 30.3 19.9C31.6 19 32.7 17.8 33.5 16.4C34.2 15 34.5 13.4 34.5 11.8C34.5 13.4 34.1 14.9 33.5 16.3V15.8Z" fill="#fff"/>
  <path d="M50.5 11H45.2V29H50.5V11Z" fill="#fff"/>
  <path d="M65.5 11H60.2V29H65.5V11Z" fill="#fff"/>
  <path d="M80.5 11H75.2V29H80.5V11Z" fill="#fff"/>
  <path d="M95.5 11H90.2V29H95.5V11Z" fill="#fff"/>
  <path d="M110.5 11H105.2V29H110.5V11Z" fill="#fff"/>
  <path d="M125.5 11H120.2V29H125.5V11Z" fill="#fff"/>
</svg>
