<svg width="135" height="40" viewBox="0 0 135 40" fill="none" xmlns="http://www.w3.org/2000/svg">
  <rect width="135" height="40" rx="8" fill="#000"/>
  <path d="M30 20C30 15.6 26.4 12 22 12H12V28H22C26.4 28 30 24.4 30 20ZM14 26V14H22C25.3 14 28 16.7 28 20C28 23.3 25.3 26 22 26H14Z" fill="#FBBC04"/>
  <path d="M45 20C45 15.6 41.4 12 37 12H27V28H37C41.4 28 45 24.4 45 20ZM29 26V14H37C40.3 14 43 16.7 43 20C43 23.3 40.3 26 37 26H29Z" fill="#0F9D58"/>
  <path d="M60 20C60 15.6 56.4 12 52 12H42V28H52C56.4 28 60 24.4 60 20ZM44 26V14H52C55.3 14 58 16.7 58 20C58 23.3 55.3 26 52 26H44Z" fill="#4285F4"/>
  <path d="M75 20C75 15.6 71.4 12 67 12H57V28H67C71.4 28 75 24.4 75 20ZM59 26V14H67C70.3 14 73 16.7 73 20C73 23.3 70.3 26 67 26H59Z" fill="#EA4335"/>
  <path d="M90 20C90 15.6 86.4 12 82 12H72V28H82C86.4 28 90 24.4 90 20ZM74 26V14H82C85.3 14 88 16.7 88 20C88 23.3 85.3 26 82 26H74Z" fill="#34A853"/>
  <path d="M105 20C105 15.6 101.4 12 97 12H87V28H97C101.4 28 105 24.4 105 20ZM89 26V14H97C100.3 14 103 16.7 103 20C103 23.3 100.3 26 97 26H89Z" fill="#EA4335"/>
  <path d="M120 20C120 15.6 116.4 12 112 12H102V28H112C116.4 28 120 24.4 120 20ZM104 26V14H112C115.3 14 118 16.7 118 20C118 23.3 115.3 26 112 26H104Z" fill="#FBBC04"/>
</svg>
