<svg width="5116" height="1379" viewBox="0 0 5116 1379" fill="none" xmlns="http://www.w3.org/2000/svg">
<path d="M2259 251.5H2653.5H2667.75C2877.76 251.5 3048 421.744 3048 631.75V631.75V631.75C3048 841.756 2877.76 1012 2667.75 1012H2663H2457.04C2392.53 1012 2360.27 1012 2332.61 1001.39C2308.18 992.022 2286.41 976.801 2269.23 957.064C2249.77 934.721 2238.71 904.423 2216.58 843.828L1954.96 127.554C1938.17 81.5816 1894.44 51 1845.5 51V51" stroke="#02C7E9" stroke-width="100" stroke-linecap="round"/>
<circle cx="150" cy="150" r="110" transform="matrix(-1 0 0 1 2897 1078)" stroke="#02C7E9" stroke-width="80"/>
<circle cx="150" cy="150" r="110" transform="matrix(-1 0 0 1 2549 1078)" stroke="#02C7E9" stroke-width="80"/>
<path d="M3023.92 1046.68C3047.12 1011.88 3074.96 944.6 3099.32 876.16L3305.8 311.24C3320.88 272.96 3312.76 235.84 3302.32 216.12V213.8H3411.36L3668.88 888.92C3692.08 952.72 3712.96 1003.76 3740.8 1046.68V1049H3593.48V1045.52C3601.6 1008.4 3595.8 950.4 3571.44 886.6L3525.04 763.64H3186.32L3152.68 856.44C3126 931.84 3124.84 1001.44 3136.44 1044.36V1049H3023.92V1046.68ZM3201.4 721.88H3508.8L3352.2 307.76L3201.4 721.88ZM4098.72 1061.76C3987.36 1061.76 3893.4 1017.68 3807.56 972.44V837.88H3812.2C3887.6 931.84 3969.96 1021.16 4098.72 1021.16C4211.24 1021.16 4291.28 956.2 4291.28 857.6C4291.28 754.36 4200.8 699.84 4065.08 658.08C3885.28 602.4 3806.4 516.56 3806.4 416.8C3806.4 303.12 3907.32 202.2 4076.68 202.2C4188.04 202.2 4280.84 245.12 4346.96 282.24V405.2H4343.48C4269.24 312.4 4171.8 242.8 4068.56 242.8C3963 242.8 3885.28 305.44 3885.28 386.64C3885.28 472.48 3976.92 532.8 4126.56 579.2C4284.32 630.24 4370.16 704.48 4370.16 832.08C4370.16 987.52 4246.04 1061.76 4098.72 1061.76ZM4594.57 1045.52V1049H4466.97V1045.52C4473.93 1013.04 4486.69 955.04 4486.69 893.56V369.24C4486.69 307.76 4473.93 249.76 4466.97 217.28V213.8H4594.57V217.28C4586.45 249.76 4573.69 307.76 4573.69 369.24V603.56H5008.69V369.24C5008.69 307.76 4995.93 249.76 4987.81 217.28V213.8H5115.41V217.28C5108.45 249.76 5095.69 307.76 5095.69 369.24V893.56C5095.69 955.04 5108.45 1013.04 5115.41 1045.52V1049H4987.81V1045.52C4995.93 1013.04 5008.69 955.04 5008.69 893.56V646.48H4573.69V893.56C4573.69 955.04 4586.45 1013.04 4594.57 1045.52Z" fill="#F8F8F8"/>
<path d="M0.520002 349.52V213.8H658.24V349.52H653.6C617.64 318.2 551.52 252.08 479.6 252.08H374.04V893.56C374.04 955.04 386.8 1013.04 393.76 1045.52V1049H266.16V1045.52C274.28 1013.04 287.04 955.04 287.04 893.56V252.08H178C107.24 252.08 41.12 318.2 4 349.52H0.520002ZM886.008 1045.52V1049H758.408V1045.52C765.368 1013.04 778.128 955.04 778.128 893.56V369.24C778.128 307.76 765.368 249.76 758.408 217.28V213.8H886.008V217.28C877.888 249.76 865.128 307.76 865.128 369.24V893.56C865.128 955.04 877.888 1013.04 886.008 1045.52ZM1143.83 217.28C1135.71 249.76 1122.95 307.76 1122.95 369.24V1010.72H1322.47C1397.87 1010.72 1468.63 948.08 1508.07 916.76H1512.71V1049H1016.23V1045.52C1023.19 1013.04 1035.95 955.04 1035.95 893.56V369.24C1035.95 307.76 1023.19 249.76 1016.23 217.28V213.8H1143.83V217.28ZM1727.23 217.28C1719.11 249.76 1706.35 307.76 1706.35 369.24V1010.72H1905.87C1981.27 1010.72 2052.03 948.08 2091.47 916.76H2096.11V1049H1599.63V1045.52C1606.59 1013.04 1619.35 955.04 1619.35 893.56V369.24C1619.35 307.76 1606.59 249.76 1599.63 217.28V213.8H1727.23V217.28Z" fill="#F8F8F8"/>
</svg>
